<svg width="24" height="24" viewBox="0 0 24 24" fill="none" xmlns="http://www.w3.org/2000/svg">
<path d="M18.7222 6.11759C18.5045 8.41084 17.5611 13.9843 17.0821 16.5533C16.8789 17.6419 16.4725 18.0047 16.0951 18.0483C15.2533 18.1208 14.6147 17.4967 13.8019 16.9597C12.5246 16.1179 11.7989 15.5954 10.5652 14.7826C9.12831 13.8391 10.0572 13.3166 10.8845 12.4748C11.1022 12.2571 14.8179 8.87529 14.8904 8.57049C14.9005 8.52433 14.8992 8.4764 14.8865 8.43087C14.8739 8.38534 14.8503 8.34359 14.8179 8.30924C14.7308 8.23667 14.6147 8.26569 14.5131 8.28021C14.3824 8.30924 12.3505 9.65906 8.38808 12.3297C7.80752 12.7216 7.285 12.9247 6.82055 12.9102C6.29804 12.8957 5.31107 12.62 4.57085 12.3732C3.65646 12.0829 2.94526 11.9233 3.00332 11.4153C3.03235 11.154 3.3952 10.8928 4.07737 10.617C8.31551 8.77369 11.1313 7.5545 12.5391 6.97393C16.5741 5.29028 17.4014 5 17.9529 5C18.069 5 18.3448 5.02903 18.519 5.17417C18.6641 5.29028 18.7077 5.44994 18.7222 5.56605C18.7077 5.65314 18.7367 5.91439 18.7222 6.11759Z" fill="white"/>
</svg>
