<svg width="512" height="512" viewBox="0 0 512 512" fill="none" xmlns="http://www.w3.org/2000/svg">
<g clip-path="url(#clip0_7_14907)">
<rect width="512" height="512" fill="#887EF8"/>
<path d="M175 343H173.599L172.401 343.728L52.4014 416.728L50.2697 418.025L50.0242 420.508L33.0242 592.508L32.4815 598H38H496H502.261L500.876 591.894L461.876 419.894L461.359 417.611L459.273 416.547L316.273 343.547L315.202 343H314H175Z" fill="white" stroke="#2A2E53" stroke-width="10"/>
<mask id="path-2-outside-1_7_14907" maskUnits="userSpaceOnUse" x="190" y="365" width="134" height="213" fill="black">
<rect fill="white" x="190" y="365" width="134" height="213"/>
<path fill-rule="evenodd" clip-rule="evenodd" d="M244 424L233.5 375L276.5 375L268.5 424H269L310.5 562.5L204 567L244 424L244 424Z"/>
</mask>
<path fill-rule="evenodd" clip-rule="evenodd" d="M244 424L233.5 375L276.5 375L268.5 424H269L310.5 562.5L204 567L244 424L244 424Z" fill="#636ECA"/>
<path d="M244 424L253.998 423.796L253.978 422.84L253.778 421.905L244 424ZM233.5 375V365L221.13 365L223.722 377.095L233.5 375ZM276.5 375L286.369 376.611L288.265 365L276.5 365V375ZM268.5 424L258.631 422.388L256.735 434H268.5V424ZM269 424L278.579 421.13L276.443 414H269V424ZM310.5 562.5L310.922 572.491L323.77 571.948L320.079 559.63L310.5 562.5ZM204 567L194.37 564.306L190.659 577.573L204.422 576.991L204 567ZM244 424L253.63 426.694L254.028 425.272L253.998 423.796L244 424ZM253.778 421.905L243.278 372.905L223.722 377.095L234.222 426.095L253.778 421.905ZM233.5 385L276.5 385V365L233.5 365V385ZM266.631 373.389L258.631 422.388L278.369 425.611L286.369 376.611L266.631 373.389ZM268.5 434H269V414H268.5V434ZM259.421 426.87L300.921 565.37L320.079 559.63L278.579 421.13L259.421 426.87ZM310.078 552.509L203.578 557.009L204.422 576.991L310.922 572.491L310.078 552.509ZM213.63 569.694L253.63 426.694L234.37 421.306L194.37 564.306L213.63 569.694ZM253.998 423.796L253.998 423.796L234.002 424.204L234.002 424.204L253.998 423.796Z" fill="#2A2E53" mask="url(#path-2-outside-1_7_14907)"/>
<mask id="mask0_7_14907" style="mask-type:alpha" maskUnits="userSpaceOnUse" x="38" y="348" width="458" height="245">
<path d="M175 348H314L457 421L496 593H38L55 421L175 348Z" fill="#D9D9D9"/>
</mask>
<g mask="url(#mask0_7_14907)">
<path d="M111.617 373.105L109 374.523L109 377.5L109 544L109 549L114 549L258.5 549L266.919 549L262.89 541.607L159.89 352.607L157.503 348.227L153.117 350.605L111.617 373.105Z" fill="#96824F" stroke="#2A2E53" stroke-width="10"/>
<path d="M402.883 373.104L405.5 374.523L405.5 377.5L405.5 544L405.5 549L400.5 549L256 549L247.581 549L251.61 541.607L354.61 352.607L356.997 348.226L361.383 350.604L402.883 373.104Z" fill="#96824F" stroke="#2A2E53" stroke-width="10"/>
</g>
<path d="M370.674 160.067C365.883 126.417 329.715 107.177 299.133 122.01L293.161 124.907C249.594 146.038 252.624 209.089 298.017 225.946C337.098 240.459 377.486 207.91 371.61 166.637L370.674 160.067Z" fill="#AD8C5B" stroke="#2A2E53" stroke-width="10"/>
<path d="M138.562 170.406C140.767 138.728 172.803 118.067 202.57 129.125L208.629 131.376C254.163 148.292 254.158 212.698 208.622 229.608C172.933 242.861 135.47 214.832 138.114 176.853L138.562 170.406Z" fill="#AD8C5B" stroke="#2A2E53" stroke-width="10"/>
<mask id="path-9-outside-2_7_14907" maskUnits="userSpaceOnUse" x="128" y="218" width="51" height="82" fill="black">
<rect fill="white" x="128" y="218" width="51" height="82"/>
<path d="M169 228C160.778 228 152.893 231.266 147.08 237.08C141.266 242.893 138 250.778 138 259C138 267.222 141.266 275.107 147.08 280.92C152.893 286.734 160.778 290 169 290L169 259L169 228Z"/>
</mask>
<path d="M169 228C160.778 228 152.893 231.266 147.08 237.08C141.266 242.893 138 250.778 138 259C138 267.222 141.266 275.107 147.08 280.92C152.893 286.734 160.778 290 169 290L169 259L169 228Z" fill="#FFFAD0"/>
<path d="M169 228C160.778 228 152.893 231.266 147.08 237.08C141.266 242.893 138 250.778 138 259C138 267.222 141.266 275.107 147.08 280.92C152.893 286.734 160.778 290 169 290L169 259L169 228Z" stroke="#2A2E53" stroke-width="20" mask="url(#path-9-outside-2_7_14907)"/>
<mask id="path-10-outside-3_7_14907" maskUnits="userSpaceOnUse" x="332" y="218" width="51" height="82" fill="black">
<rect fill="white" x="332" y="218" width="51" height="82"/>
<path d="M342 290C350.222 290 358.107 286.734 363.92 280.92C369.734 275.107 373 267.222 373 259C373 250.778 369.734 242.893 363.92 237.08C358.107 231.266 350.222 228 342 228L342 259L342 290Z"/>
</mask>
<path d="M342 290C350.222 290 358.107 286.734 363.92 280.92C369.734 275.107 373 267.222 373 259C373 250.778 369.734 242.893 363.92 237.08C358.107 231.266 350.222 228 342 228L342 259L342 290Z" fill="#FFFAD0"/>
<path d="M342 290C350.222 290 358.107 286.734 363.92 280.92C369.734 275.107 373 267.222 373 259C373 250.778 369.734 242.893 363.92 237.08C358.107 231.266 350.222 228 342 228L342 259L342 290Z" stroke="#2A2E53" stroke-width="20" mask="url(#path-10-outside-3_7_14907)"/>
<path d="M324.647 346.588L327.152 345.252L329.583 346.719L358.583 364.219L364.264 367.647L359.403 372.163L309.01 418.988C303.597 424.018 295.085 423.53 290.282 417.914L263.2 386.25L259.153 381.518L264.647 378.588L324.647 346.588Z" fill="white" stroke="#2A2E53" stroke-width="10"/>
<path d="M187.853 346.588L185.297 345.225L182.844 346.764L153.344 365.264L147.742 368.777L152.648 373.21L203.548 419.199C208.978 424.105 217.386 423.564 222.143 418.002L249.3 386.25L253.347 381.518L247.853 378.588L187.853 346.588Z" fill="white" stroke="#2A2E53" stroke-width="10"/>
<path d="M236 109C194.026 109 160 143.026 160 185V238.771C160 258.884 162.097 278.942 166.257 298.621L167.592 304.938C174.733 338.716 200.462 365.55 233.877 374.187C249.026 378.103 264.967 378.033 280.08 373.965C311.942 365.388 336.61 340.149 344.455 308.099L345.807 302.575C351.249 280.341 354 257.533 354 234.643V185C354 143.026 319.974 109 278 109H236Z" fill="#FFFAD0" stroke="#2A2E53" stroke-width="10"/>
<path d="M277.429 240.862C277.429 238.416 275.446 236.433 273 236.433C270.554 236.433 268.571 238.416 268.571 240.862L277.429 240.862ZM273 276L277.429 276L273 276ZM268.571 240.862L268.571 276L277.429 276L277.429 240.862L268.571 240.862ZM243.429 276L243.429 239L234.571 239L234.571 276L243.429 276ZM256 288.571C249.057 288.571 243.429 282.943 243.429 276L234.571 276C234.571 287.835 244.165 297.429 256 297.429L256 288.571ZM268.571 276C268.571 282.943 262.943 288.571 256 288.571L256 297.429C267.835 297.429 277.429 287.835 277.429 276L268.571 276Z" fill="#2A2E53"/>
<rect x="231" y="322" width="52" height="10" rx="5" fill="#2F2F4F"/>
<path d="M134.137 58.1391C128.312 55.3275 121.511 59.3951 121.233 65.8573M134.137 58.1391L121.233 65.8573M134.137 58.1391L140.132 61.0327M134.137 58.1391L140.132 61.0327M121.233 65.8573L119.589 104.064C118.052 139.765 146.265 169.704 181.995 170.286L300.376 172.216C329.574 172.692 353.5 149.153 353.5 119.951C353.5 86.1504 321.905 61.2369 289.036 69.1201L219.403 85.821C207.428 88.693 194.829 87.3462 183.732 82.0077L140.138 61.0356L140.132 61.0327M121.233 65.8573L140.132 61.0327" fill="#AD8C5B" stroke="#2A2E53" stroke-width="10"/>
<path d="M147.303 91.0075L131.5 73L172.924 94.8845C180.571 98.9241 188.92 101.462 197.521 102.36C211.067 103.776 224.758 102.791 237.962 99.4521L290.973 86.0471C300.163 83.7232 309.802 83.8533 318.926 86.4244C343.871 93.4535 337.797 130.387 311.915 129.058L215.68 124.115C189.352 122.763 164.691 110.822 147.303 91.0075Z" fill="#DABA8A"/>
<path d="M289 196C303.703 191.344 311.81 191.291 326 196" stroke="#EEE3B7" stroke-width="11" stroke-linecap="round"/>
<path d="M186 196C200.713 190.933 208.8 191.179 223 196" stroke="#EEE3B7" stroke-width="11" stroke-linecap="round"/>
<circle cx="309.5" cy="242.5" r="23.5" fill="white"/>
<circle cx="309.5" cy="242.5" r="23.5" stroke="#EEE3B7"/>
<circle cx="204.5" cy="242.5" r="23.5" fill="white"/>
<circle cx="204.5" cy="242.5" r="23.5" stroke="#EEE3B7"/>
<circle cx="309.5" cy="242.5" r="14.5" fill="#251F17"/>
<circle cx="204.5" cy="242.5" r="14.5" fill="#251F17"/>
<circle cx="321" cy="235" r="7" fill="white"/>
<circle cx="217" cy="235" r="7" fill="white"/>
<path d="M229 234C229 230.717 228.366 227.466 227.135 224.433C225.904 221.4 224.099 218.644 221.824 216.322C219.549 214.001 216.848 212.159 213.876 210.903C210.903 209.647 207.717 209 204.5 209C201.283 209 198.097 209.647 195.124 210.903C192.152 212.159 189.451 214.001 187.176 216.322C184.901 218.644 183.096 221.4 181.865 224.433C180.634 227.466 180 230.717 180 234L204.5 234H229Z" fill="#EEE3B7"/>
<path d="M332 234C332 230.717 331.366 227.466 330.135 224.433C328.904 221.4 327.099 218.644 324.824 216.322C322.549 214.001 319.848 212.159 316.876 210.903C313.903 209.647 310.717 209 307.5 209C304.283 209 301.097 209.647 298.124 210.903C295.152 212.159 292.451 214.001 290.176 216.322C287.901 218.644 286.096 221.4 284.865 224.433C283.634 227.466 283 230.717 283 234L307.5 234H332Z" fill="#EEE3B7"/>
<g style="mix-blend-mode:overlay">
<path d="M207 225H228L211 264H190L207 225Z" fill="white"/>
</g>
<g style="mix-blend-mode:overlay">
<path d="M312 225H333L316 264H295L312 225Z" fill="white"/>
</g>
<rect x="168.5" y="225.5" width="64" height="38" rx="14.5" stroke="#51599F" stroke-width="7"/>
<path d="M275 256L275 244C275 237.925 270.075 233 264 233L249 233C242.925 233 238 237.925 238 244L238 256" stroke="#51599F" stroke-width="7" stroke-linecap="round"/>
<rect x="279.5" y="225.5" width="62" height="38" rx="14.5" stroke="#51599F" stroke-width="7"/>
</g>
<defs>
<clipPath id="clip0_7_14907">
<rect width="512" height="512" fill="white"/>
</clipPath>
</defs>
</svg>
