<svg width="137" height="28" viewBox="0 0 137 28" fill="none" xmlns="http://www.w3.org/2000/svg">
<rect width="28" height="28" rx="14" fill="#5C9ED7"/>
<path d="M10 14V9.89212C10 9.05176 10.9102 8.52697 11.6375 8.94802L18.7329 13.0559C19.4587 13.4761 19.4587 14.5239 18.7329 14.9441L11.6375 19.052C10.9102 19.473 10 18.9482 10 18.1079V14Z" fill="#F8FFFE"/>
<rect x="31.5" y="10.2089" width="2.31646" height="7.58228" rx="1.15823" fill="white" stroke="#5C9ED7"/>
<rect x="34.1329" y="5.60127" width="2.31646" height="16.7975" rx="1.15823" fill="white" stroke="#5C9ED7"/>
<rect x="36.7658" y="10.2089" width="2.31646" height="7.58228" rx="1.15823" fill="white" stroke="#5C9ED7"/>
<rect x="39.3987" y="8.8924" width="2.31646" height="10.2152" rx="1.15823" fill="white" stroke="#5C9ED7"/>
<rect x="42.0316" y="10.2089" width="2.31646" height="7.58228" rx="1.15823" fill="white" stroke="#5C9ED7"/>
<rect x="44.6646" y="5.60127" width="2.31646" height="16.7975" rx="1.15823" fill="white" stroke="#5C9ED7"/>
<rect x="47.2975" y="10.2089" width="2.31646" height="7.58228" rx="1.15823" fill="white" stroke="#5C9ED7"/>
<rect x="49.9304" y="8.8924" width="2.31646" height="10.2152" rx="1.15823" fill="white" stroke="#5C9ED7"/>
<rect x="52.5633" y="6.91772" width="2.31646" height="14.1646" rx="1.15823" fill="white" stroke="#5C9ED7"/>
<rect x="55.1962" y="5.60127" width="2.31646" height="16.7975" rx="1.15823" fill="white" stroke="#5C9ED7"/>
<rect x="57.8291" y="10.2089" width="2.31646" height="7.58228" rx="1.15823" fill="white" stroke="#5C9ED7"/>
<rect x="60.462" y="8.8924" width="2.31646" height="10.2152" rx="1.15823" fill="white" stroke="#5C9ED7"/>
<rect x="63.0949" y="10.2089" width="2.31646" height="7.58228" rx="1.15823" fill="white" stroke="#5C9ED7"/>
<rect x="65.7278" y="5.60127" width="2.31646" height="16.7975" rx="1.15823" fill="white" stroke="#5C9ED7"/>
<rect x="68.3608" y="10.2089" width="2.31646" height="7.58228" rx="1.15823" fill="white" stroke="#5C9ED7"/>
<rect x="70.9937" y="8.8924" width="2.31646" height="10.2152" rx="1.15823" fill="white" stroke="#5C9ED7"/>
<rect x="73.6266" y="10.2089" width="2.31646" height="7.58228" rx="1.15823" fill="white" stroke="#5C9ED7"/>
<rect x="76.2595" y="8.8924" width="2.31646" height="10.2152" rx="1.15823" fill="white" stroke="#5C9ED7"/>
<rect x="78.8924" y="10.2089" width="2.31646" height="7.58228" rx="1.15823" fill="white" stroke="#5C9ED7"/>
<rect x="81.5253" y="8.8924" width="2.31646" height="10.2152" rx="1.15823" fill="white" stroke="#5C9ED7"/>
<rect x="84.1582" y="10.2089" width="2.31646" height="7.58228" rx="1.15823" fill="white" stroke="#5C9ED7"/>
<rect x="86.7911" y="5.60127" width="2.31646" height="16.7975" rx="1.15823" fill="white" stroke="#5C9ED7"/>
<rect x="89.424" y="10.2089" width="2.31646" height="7.58228" rx="1.15823" fill="white" stroke="#5C9ED7"/>
<rect x="92.057" y="8.8924" width="2.31646" height="10.2152" rx="1.15823" fill="white" stroke="#5C9ED7"/>
<rect x="94.6899" y="10.2089" width="2.31646" height="7.58228" rx="1.15823" fill="white" stroke="#5C9ED7"/>
<rect x="97.3228" y="8.8924" width="2.31646" height="10.2152" rx="1.15823" fill="white" stroke="#5C9ED7"/>
<rect x="99.9557" y="10.2089" width="2.31646" height="7.58228" rx="1.15823" fill="white" stroke="#5C9ED7"/>
<rect x="102.589" y="8.8924" width="2.31646" height="10.2152" rx="1.15823" fill="white" stroke="#5C9ED7"/>
<rect x="105.222" y="6.91772" width="2.31646" height="14.1646" rx="1.15823" fill="white" stroke="#5C9ED7"/>
<rect x="107.854" y="8.8924" width="2.31646" height="10.2152" rx="1.15823" fill="white" stroke="#5C9ED7"/>
<rect x="110.487" y="11.5253" width="2.31646" height="4.94937" rx="1.15823" fill="white" stroke="#5C9ED7"/>
<rect x="113.12" y="11.5253" width="2.31646" height="4.94937" rx="1.15823" fill="white" stroke="#5C9ED7"/>
<rect x="115.753" y="10.2089" width="2.31646" height="7.58228" rx="1.15823" fill="white" stroke="#5C9ED7"/>
<rect x="118.386" y="8.8924" width="2.31646" height="10.2152" rx="1.15823" fill="white" stroke="#5C9ED7"/>
<rect x="121.019" y="11.5253" width="2.31646" height="4.94937" rx="1.15823" fill="white" stroke="#5C9ED7"/>
<rect x="123.652" y="11.5253" width="2.31646" height="4.94937" rx="1.15823" fill="white" stroke="#5C9ED7"/>
<rect x="126.285" y="11.5253" width="2.31646" height="4.94937" rx="1.15823" fill="white" stroke="#5C9ED7"/>
<rect x="128.918" y="8.8924" width="2.31646" height="10.2152" rx="1.15823" fill="white" stroke="#5C9ED7"/>
<rect x="131.551" y="10.2089" width="2.31646" height="7.58228" rx="1.15823" fill="white" stroke="#5C9ED7"/>
<rect x="134.184" y="8.8924" width="2.31646" height="10.2152" rx="1.15823" fill="white" stroke="#5C9ED7"/>
</svg>
