<svg width="136" height="28" viewBox="0 0 136 28" fill="none" xmlns="http://www.w3.org/2000/svg">
<rect width="28" height="28" rx="14" fill="#5C9ED7"/>
<path d="M10 14V9.89212C10 9.05176 10.9102 8.52697 11.6375 8.94802L18.7329 13.0559C19.4587 13.4761 19.4587 14.5239 18.7329 14.9441L11.6375 19.052C10.9102 19.473 10 18.9482 10 18.1079V14Z" fill="#F8FFFE"/>
<rect x="32" y="10.7089" width="1.31646" height="6.58228" rx="0.658228" fill="#787878" fill-opacity="0.47"/>
<rect x="34.6329" y="6.10127" width="1.31646" height="15.7975" rx="0.658228" fill="#787878" fill-opacity="0.47"/>
<rect x="37.2658" y="10.7089" width="1.31646" height="6.58228" rx="0.658228" fill="#787878" fill-opacity="0.47"/>
<rect x="39.8987" y="9.3924" width="1.31646" height="9.21519" rx="0.658228" fill="#787878" fill-opacity="0.47"/>
<rect x="42.5316" y="10.7089" width="1.31646" height="6.58228" rx="0.658228" fill="#787878" fill-opacity="0.47"/>
<rect x="45.1646" y="6.10127" width="1.31646" height="15.7975" rx="0.658228" fill="#787878" fill-opacity="0.47"/>
<rect x="47.7975" y="10.7089" width="1.31646" height="6.58228" rx="0.658228" fill="#787878" fill-opacity="0.47"/>
<rect x="50.4304" y="9.3924" width="1.31646" height="9.21519" rx="0.658228" fill="#787878" fill-opacity="0.47"/>
<rect x="53.0633" y="7.41772" width="1.31646" height="13.1646" rx="0.658228" fill="#787878" fill-opacity="0.47"/>
<rect x="55.6962" y="6.10127" width="1.31646" height="15.7975" rx="0.658228" fill="#787878" fill-opacity="0.47"/>
<rect x="58.3291" y="10.7089" width="1.31646" height="6.58228" rx="0.658228" fill="#787878" fill-opacity="0.47"/>
<rect x="60.962" y="9.3924" width="1.31646" height="9.21519" rx="0.658228" fill="#787878" fill-opacity="0.47"/>
<rect x="63.5949" y="10.7089" width="1.31646" height="6.58228" rx="0.658228" fill="#787878" fill-opacity="0.47"/>
<rect x="66.2278" y="6.10127" width="1.31646" height="15.7975" rx="0.658228" fill="#787878" fill-opacity="0.47"/>
<rect x="68.8608" y="10.7089" width="1.31646" height="6.58228" rx="0.658228" fill="#787878" fill-opacity="0.47"/>
<rect x="71.4937" y="9.3924" width="1.31646" height="9.21519" rx="0.658228" fill="#787878" fill-opacity="0.47"/>
<rect x="74.1266" y="10.7089" width="1.31646" height="6.58228" rx="0.658228" fill="#787878" fill-opacity="0.47"/>
<rect x="76.7595" y="9.3924" width="1.31646" height="9.21519" rx="0.658228" fill="#787878" fill-opacity="0.47"/>
<rect x="79.3924" y="10.7089" width="1.31646" height="6.58228" rx="0.658228" fill="#787878" fill-opacity="0.47"/>
<rect x="82.0253" y="9.3924" width="1.31646" height="9.21519" rx="0.658228" fill="#787878" fill-opacity="0.47"/>
<rect x="84.6582" y="10.7089" width="1.31646" height="6.58228" rx="0.658228" fill="#787878" fill-opacity="0.47"/>
<rect x="87.2911" y="6.10127" width="1.31646" height="15.7975" rx="0.658228" fill="#787878" fill-opacity="0.47"/>
<rect x="89.924" y="10.7089" width="1.31646" height="6.58228" rx="0.658228" fill="#787878" fill-opacity="0.47"/>
<rect x="92.557" y="9.3924" width="1.31646" height="9.21519" rx="0.658228" fill="#787878" fill-opacity="0.47"/>
<rect x="95.1899" y="10.7089" width="1.31646" height="6.58228" rx="0.658228" fill="#787878" fill-opacity="0.47"/>
<rect x="97.8228" y="9.3924" width="1.31646" height="9.21519" rx="0.658228" fill="#787878" fill-opacity="0.47"/>
<rect x="100.456" y="10.7089" width="1.31646" height="6.58228" rx="0.658228" fill="#787878" fill-opacity="0.47"/>
<rect x="103.089" y="9.3924" width="1.31646" height="9.21519" rx="0.658228" fill="#787878" fill-opacity="0.47"/>
<rect x="105.722" y="7.41772" width="1.31646" height="13.1646" rx="0.658228" fill="#787878" fill-opacity="0.47"/>
<rect x="108.354" y="9.3924" width="1.31646" height="9.21519" rx="0.658228" fill="#787878" fill-opacity="0.47"/>
<rect x="110.987" y="12.0253" width="1.31646" height="3.94937" rx="0.658228" fill="#787878" fill-opacity="0.47"/>
<rect x="113.62" y="12.0253" width="1.31646" height="3.94937" rx="0.658228" fill="#787878" fill-opacity="0.47"/>
<rect x="116.253" y="10.7089" width="1.31646" height="6.58228" rx="0.658228" fill="#787878" fill-opacity="0.47"/>
<rect x="118.886" y="9.3924" width="1.31646" height="9.21519" rx="0.658228" fill="#787878" fill-opacity="0.47"/>
<rect x="121.519" y="12.0253" width="1.31646" height="3.94937" rx="0.658228" fill="#787878" fill-opacity="0.47"/>
<rect x="124.152" y="12.0253" width="1.31646" height="3.94937" rx="0.658228" fill="#787878" fill-opacity="0.47"/>
<rect x="126.785" y="12.0253" width="1.31646" height="3.94937" rx="0.658228" fill="#787878" fill-opacity="0.47"/>
<rect x="129.418" y="9.3924" width="1.31646" height="9.21519" rx="0.658228" fill="#787878" fill-opacity="0.47"/>
<rect x="132.051" y="10.7089" width="1.31646" height="6.58228" rx="0.658228" fill="#787878" fill-opacity="0.47"/>
<rect x="134.684" y="9.3924" width="1.31646" height="9.21519" rx="0.658228" fill="#787878" fill-opacity="0.47"/>
</svg>
